# xmcd
#
# Track frame offsets:
#	150
#	12350
#	22719
#	37772
#	50709
#	62173
#	74883
#	84323
#	97568
#	110587
#	121669
#	133994
#	148605
#	164569
#	177557
#	196318
#
# Disc length: 2773 seconds
#
# Revision: 0
# Processed by: cddbd v1.5.2PL0 Copyright (c) Steve Scherf et al.
# Submitted via: audiograbber 1.83.01
#
DISCID=db0ad310
DTITLE=Various Artist - FULL MOON - CD 3 [CDC)
DYEAR=2005
DGENRE=Ballad
TTITLE0=ANDY WILLIAMS - MOON RIVER
TTITLE1=ASTRUD GILBERTO - FLY ME TO THE MOON
TTITLE2=GLENN MILLER - MOONLIGHT SERENADE
TTITLE3=DORIS DAY - QUIET NIGHTS OF QUIET STARS
TTITLE4=ROSEMARY CLOONEY and PEREZ PRADO - MAGIC IS THE MOONLIGHT
TTITLE5=PATTI PAGE - ALLEGHENY MOON
TTITLE6=BILLY VAUGHN - SAIL ALONG SILV'RY MOON
TTITLE7=SHIRLEY BASSEY - MOON  RIVER
TTITLE8=FRANKIE LAINE - MOONLIGHT GAMBLER
TTITLE9=JULIE LONDON - BLUE MOON 
TTITLE10=MEL TORME - THE MOON WAS YELLOW
TTITLE11=SARAH VAUGHAN - MOONLIGHT IN VERMONT
TTITLE12=ELLA FITZGERALD - IT'S ONLY A PAPER MOON
TTITLE13=SHIRLEY BASSEY - REACH FOR THE STARS
TTITLE14=TONY BENNETT - EAST OF THE SUN (WEST OF THE MOON)
TTITLE15=BERT KAEMPFERT - SPANISH EYES (MOON OVER NAPLES)
EXTD=
EXTT0=
EXTT1=
EXTT2=
EXTT3=
EXTT4=
EXTT5=
EXTT6=
EXTT7=
EXTT8=
EXTT9=
EXTT10=
EXTT11=
EXTT12=
EXTT13=
EXTT14=
EXTT15=
PLAYORDER=
